<?xml version="1.0" standalone="no"?>
<!DOCTYPE svg PUBLIC "-//W3C//DTD SVG 20010904//EN"
 "http://www.w3.org/TR/2001/REC-SVG-20010904/DTD/svg10.dtd">
<svg version="1.0" xmlns="http://www.w3.org/2000/svg"
 width="223.000000pt" height="223.000000pt" viewBox="0 0 223.000000 223.000000"
 preserveAspectRatio="xMidYMid meet">
<metadata>
Created by potrace 1.14, written by Peter Selinger 2001-2017
</metadata>
<g transform="translate(0.000000,223.000000) scale(0.100000,-0.100000)"
fill="#000000" stroke="none">
<path d="M194 1989 c-11 -6 -28 -23 -37 -39 -16 -26 -17 -107 -17 -957 1 -714
3 -932 13 -943 7 -9 23 -24 37 -33 23 -16 92 -17 918 -17 970 0 934 -2 960 55
9 19 12 254 12 948 0 853 -1 924 -17 947 -9 14 -24 30 -33 37 -20 16 -1803 17
-1836 2z"/>
</g>
</svg>
